<?xml version="1.0" encoding="utf-8" ?>
<svg xmlns="http://www.w3.org/2000/svg" xmlns:xlink="http://www.w3.org/1999/xlink" width="1024" height="1024">
	<path fill="#240046" transform="scale(2 2)" d="M384.924 159.753C380.981 162.223 379.141 162.755 375.51 159.753C373.452 157.236 369.574 152.038 366.714 150.677C363.25 149.028 357.377 148.049 356.94 143.286C356.304 136.339 362.557 136.979 367.501 137.001C370.536 134.053 374.662 127.462 378.616 126.337C385.157 124.475 388.102 135.381 393.033 136.76C402.848 139.505 411.932 133.497 425.927 141.908C443.514 152.48 441.964 168.926 441.963 186.113L441.978 249.329C441.979 253.045 443.003 268.13 441.152 270.982C439.046 274.225 432.654 273.236 432.068 269.251C431.648 266.394 431.883 263.196 431.882 260.3L431.889 189.277C431.912 175.689 434.551 159.993 421.495 151.182C415.616 147.215 405.627 145.722 398.534 147.196C393.2 148.305 387.807 155.358 384.924 159.753ZM378.988 138.934Q378.879 138.957 378.771 138.984Q378.664 139.012 378.558 139.045Q378.451 139.078 378.347 139.117Q378.243 139.155 378.14 139.198Q378.038 139.242 377.938 139.29Q377.838 139.339 377.74 139.392Q377.642 139.445 377.547 139.503Q377.453 139.561 377.361 139.624Q377.269 139.687 377.18 139.754Q377.091 139.821 377.006 139.892Q376.921 139.964 376.839 140.039Q376.757 140.115 376.68 140.194Q376.602 140.273 376.528 140.357Q376.454 140.44 376.384 140.527Q376.315 140.613 376.25 140.703Q376.184 140.793 376.123 140.887Q376.063 140.98 376.007 141.076Q375.951 141.172 375.899 141.27Q375.848 141.369 375.802 141.47Q375.755 141.571 375.714 141.675Q375.673 141.778 375.636 141.883Q375.6 141.988 375.569 142.095Q375.538 142.202 375.513 142.31Q375.487 142.418 375.467 142.528Q375.446 142.637 375.431 142.747Q375.417 142.857 375.407 142.968Q375.398 143.079 375.394 143.19Q375.39 143.301 375.391 143.412Q375.393 143.524 375.4 143.635Q375.407 143.746 375.419 143.856Q375.432 143.967 375.45 144.076Q375.468 144.186 375.491 144.295Q375.514 144.404 375.543 144.511Q375.571 144.619 375.605 144.725Q375.639 144.831 375.678 144.935Q375.717 145.039 375.761 145.141Q375.806 145.243 375.855 145.343Q375.904 145.442 375.958 145.54Q376.012 145.637 376.07 145.731Q376.129 145.826 376.192 145.917Q376.256 146.009 376.323 146.097Q376.391 146.185 376.463 146.27Q376.535 146.355 376.611 146.436Q376.687 146.517 376.767 146.594Q376.847 146.672 376.931 146.745Q377.015 146.818 377.102 146.887Q377.189 146.956 377.279 147.021Q377.37 147.085 377.464 147.145Q377.557 147.206 377.653 147.261Q377.75 147.316 377.849 147.367Q377.948 147.418 378.049 147.463Q378.151 147.509 378.254 147.549Q378.358 147.59 378.463 147.626Q378.569 147.661 378.676 147.691Q378.783 147.721 378.891 147.746Q379 147.771 379.109 147.791Q379.218 147.81 379.329 147.824Q379.439 147.838 379.55 147.847Q379.661 147.856 379.772 147.859Q379.883 147.862 379.994 147.86Q380.105 147.857 380.216 147.85Q380.327 147.842 380.438 147.829Q380.548 147.815 380.658 147.797Q380.767 147.778 380.876 147.754Q380.984 147.73 381.09 147.701Q381.196 147.672 381.301 147.638Q381.406 147.604 381.509 147.564Q381.612 147.525 381.713 147.481Q381.813 147.436 381.912 147.387Q382.011 147.338 382.107 147.284Q382.203 147.23 382.296 147.172Q382.39 147.113 382.48 147.05Q382.57 146.987 382.658 146.92Q382.745 146.852 382.829 146.781Q382.912 146.709 382.993 146.634Q383.073 146.558 383.149 146.479Q383.226 146.399 383.298 146.316Q383.371 146.233 383.439 146.147Q383.507 146.06 383.571 145.971Q383.635 145.881 383.695 145.788Q383.754 145.695 383.809 145.6Q383.864 145.504 383.915 145.406Q383.965 145.308 384.01 145.208Q384.055 145.107 384.096 145.005Q384.136 144.902 384.172 144.798Q384.207 144.693 384.237 144.588Q384.267 144.482 384.292 144.374Q384.317 144.267 384.337 144.158Q384.357 144.05 384.371 143.941Q384.386 143.832 384.395 143.722Q384.404 143.612 384.407 143.502Q384.411 143.392 384.409 143.281Q384.408 143.171 384.401 143.061Q384.394 142.951 384.381 142.842Q384.369 142.732 384.351 142.624Q384.333 142.515 384.31 142.407Q384.287 142.299 384.259 142.193Q384.23 142.086 384.197 141.981Q384.164 141.876 384.125 141.773Q384.086 141.67 384.043 141.568Q383.999 141.467 383.951 141.368Q383.902 141.269 383.849 141.173Q383.796 141.076 383.738 140.982Q383.68 140.889 383.618 140.798Q383.555 140.707 383.489 140.619Q383.422 140.532 383.351 140.447Q383.28 140.363 383.205 140.282Q383.13 140.201 383.051 140.124Q382.972 140.047 382.89 139.974Q382.807 139.901 382.721 139.832Q382.635 139.763 382.546 139.699Q382.457 139.634 382.365 139.574Q382.272 139.514 382.177 139.458Q382.082 139.402 381.984 139.351Q381.887 139.3 381.787 139.254Q381.687 139.208 381.584 139.167Q381.482 139.126 381.378 139.09Q381.274 139.054 381.168 139.023Q381.062 138.992 380.955 138.966Q380.848 138.94 380.74 138.92Q380.631 138.899 380.522 138.884Q380.413 138.869 380.303 138.859Q380.194 138.849 380.083 138.844Q379.973 138.84 379.863 138.841Q379.753 138.842 379.643 138.848Q379.533 138.854 379.423 138.866Q379.314 138.878 379.205 138.895Q379.096 138.912 378.988 138.934Z"/>
	<path fill="#240046" transform="scale(2 2)" d="M260.937 146.806L123.919 146.798C111.055 146.793 97.4761 144.489 87.3855 154.147C72.4557 168.436 85.5156 195.805 75.9651 198.184C67.5804 200.272 69.8352 185.991 69.8744 181.576C69.9826 169.412 69 160.569 77.2255 150.33C83.6874 142.287 92.25 138.1 102.377 137.001C107.271 136.834 112.223 136.996 117.124 136.996L327.542 137.02C331.659 137.016 340.717 135.607 344.024 138.637C347.14 141.493 345.009 146.496 341.046 146.849C338.535 147.072 335.888 146.819 333.362 146.815L260.937 146.806Z"/>
	<path fill="#C77DFF" transform="scale(2 2)" d="M380.876 147.754Q380.767 147.778 380.658 147.797Q380.548 147.815 380.438 147.829Q380.327 147.842 380.216 147.85Q380.105 147.857 379.994 147.86Q379.883 147.862 379.772 147.859Q379.661 147.856 379.55 147.847Q379.439 147.838 379.329 147.824Q379.218 147.81 379.109 147.791Q379 147.771 378.891 147.746Q378.783 147.721 378.676 147.691Q378.569 147.661 378.463 147.626Q378.358 147.59 378.254 147.549Q378.151 147.509 378.049 147.463Q377.948 147.418 377.849 147.367Q377.75 147.316 377.654 147.261Q377.557 147.206 377.464 147.145Q377.37 147.085 377.279 147.021Q377.189 146.956 377.102 146.887Q377.015 146.818 376.931 146.745Q376.847 146.672 376.767 146.594Q376.687 146.517 376.611 146.436Q376.535 146.355 376.463 146.27Q376.391 146.185 376.323 146.097Q376.256 146.009 376.192 145.917Q376.129 145.826 376.07 145.731Q376.012 145.637 375.958 145.54Q375.904 145.443 375.855 145.343Q375.806 145.243 375.761 145.141Q375.717 145.039 375.678 144.935Q375.639 144.831 375.605 144.725Q375.571 144.619 375.543 144.511Q375.514 144.404 375.491 144.295Q375.468 144.186 375.45 144.076Q375.432 143.967 375.419 143.856Q375.407 143.746 375.4 143.635Q375.393 143.524 375.391 143.412Q375.39 143.301 375.394 143.19Q375.398 143.079 375.407 142.968Q375.417 142.857 375.431 142.747Q375.446 142.637 375.467 142.528Q375.487 142.418 375.513 142.31Q375.538 142.202 375.569 142.095Q375.6 141.988 375.636 141.883Q375.673 141.778 375.714 141.675Q375.755 141.571 375.802 141.47Q375.848 141.369 375.899 141.27Q375.951 141.172 376.007 141.076Q376.063 140.98 376.123 140.887Q376.184 140.793 376.25 140.703Q376.315 140.613 376.384 140.527Q376.454 140.44 376.528 140.357Q376.602 140.273 376.68 140.194Q376.757 140.115 376.839 140.039Q376.921 139.964 377.006 139.892Q377.091 139.821 377.18 139.754Q377.269 139.687 377.361 139.624Q377.453 139.561 377.547 139.503Q377.642 139.445 377.74 139.392Q377.838 139.339 377.938 139.29Q378.038 139.242 378.14 139.198Q378.243 139.155 378.347 139.117Q378.451 139.078 378.558 139.045Q378.664 139.012 378.771 138.984Q378.879 138.957 378.988 138.934Q379.096 138.912 379.205 138.895Q379.314 138.878 379.423 138.866Q379.533 138.854 379.643 138.848Q379.753 138.842 379.863 138.841Q379.973 138.84 380.083 138.845Q380.194 138.849 380.303 138.859Q380.413 138.869 380.522 138.884Q380.631 138.899 380.74 138.92Q380.848 138.94 380.955 138.966Q381.062 138.992 381.168 139.023Q381.274 139.054 381.378 139.09Q381.482 139.126 381.584 139.167Q381.687 139.208 381.787 139.254Q381.887 139.3 381.984 139.351Q382.082 139.402 382.177 139.458Q382.272 139.514 382.365 139.574Q382.457 139.634 382.546 139.699Q382.635 139.763 382.721 139.832Q382.807 139.901 382.89 139.974Q382.972 140.047 383.051 140.124Q383.13 140.201 383.205 140.282Q383.28 140.363 383.351 140.447Q383.422 140.532 383.489 140.619Q383.555 140.707 383.618 140.798Q383.68 140.889 383.738 140.982Q383.796 141.076 383.849 141.173Q383.902 141.269 383.951 141.368Q383.999 141.467 384.043 141.568Q384.086 141.67 384.125 141.773Q384.164 141.876 384.197 141.981Q384.23 142.086 384.259 142.193Q384.287 142.299 384.31 142.407Q384.333 142.515 384.351 142.624Q384.369 142.732 384.381 142.842Q384.394 142.951 384.401 143.061Q384.408 143.171 384.409 143.281Q384.411 143.392 384.407 143.502Q384.404 143.612 384.395 143.722Q384.386 143.832 384.371 143.941Q384.357 144.05 384.337 144.158Q384.317 144.267 384.292 144.374Q384.267 144.482 384.237 144.588Q384.207 144.693 384.172 144.798Q384.136 144.902 384.096 145.005Q384.055 145.107 384.01 145.208Q383.965 145.308 383.915 145.406Q383.864 145.504 383.809 145.6Q383.754 145.695 383.695 145.788Q383.635 145.881 383.571 145.971Q383.507 146.06 383.439 146.147Q383.371 146.233 383.298 146.316Q383.226 146.399 383.149 146.479Q383.073 146.558 382.993 146.634Q382.912 146.709 382.829 146.781Q382.745 146.852 382.658 146.92Q382.57 146.987 382.48 147.05Q382.39 147.113 382.296 147.172Q382.203 147.23 382.107 147.284Q382.011 147.338 381.912 147.387Q381.813 147.436 381.713 147.481Q381.612 147.525 381.509 147.564Q381.406 147.604 381.301 147.638Q381.196 147.672 381.09 147.701Q380.984 147.73 380.876 147.754Z"/>
	<path fill="#240046" transform="scale(2 2)" d="M166.101 253.602C161.72 252.721 160.841 251.3 160.746 247.144C160.603 240.891 159.897 176.738 161.03 173.425C161.613 171.723 163.008 170.982 164.56 170.295C173.093 169.611 171.281 178.129 171.275 183.832L171.247 201.042C182.503 196.374 199.329 196.408 202.028 211.273C202.951 216.354 202.734 241.595 202.287 247.54C201.045 249.368 199.307 250.743 196.999 250.801C190.25 250.97 192.056 240.502 192.059 236.397L192.079 215.384C192.065 203.709 176.229 208.091 171.247 215.384L171.261 236.807C171.268 243.218 173.428 251.618 166.101 253.602Z"/>
	<path fill="#240046" transform="scale(2 2)" d="M126.754 252.472C101.747 250.971 104.027 219.255 114.409 225.906C119.304 229.042 115.337 235.638 119.899 239.771C122.984 242.566 132.082 243.037 134.949 239.486C137.738 236.031 137.399 228.464 136.876 224.184C135.797 215.372 128.084 218.063 121.892 216.912C101.104 213.048 101.769 177.856 124.754 175.6C149.433 173.529 152.481 199.384 142.366 199.091C134.674 198.868 138.861 191.148 135.483 187.855C130.925 183.413 116.885 183.716 117.441 197C118.132 213.517 131.104 201.576 141.564 211.373C149.575 218.876 149.459 238.986 142.209 246.616C138.106 250.932 132.507 252.329 126.754 252.472Z"/>
	<path fill="#240046" transform="scale(2 2)" d="M385.3 201.042C385.345 193.737 382.39 182.03 389.849 178.764C397.937 178.25 396.123 188.41 396.126 193.591L396.123 232.019C396.121 236.255 397.413 247.56 393.821 250.502C390.714 253.048 387.258 249.939 385.3 247.54C380.431 253.146 370.6 252.211 364.481 249.491C358.877 246.63 355.468 242.073 355.043 235.84C354.669 230.358 354.443 216.788 355.088 211.472C356.883 196.699 374.623 195.435 385.3 201.042ZM373.504 208.33C370.029 208.772 367.243 210.148 365.501 213.243C365.447 217.675 365.489 222.107 365.495 226.539C365.505 234.592 365.328 243.379 376.967 240.763C386.921 237.343 386.874 222.423 384.149 214.914C382.479 210.31 378.102 208.356 373.504 208.33Z"/>
	<path fill="#240046" transform="scale(2 2)" d="M241.261 211.103C233.512 203.381 221.67 212.99 216.707 209.77C214.534 208.36 213.622 205.014 215.25 202.887C218.108 199.151 225.845 198.365 230.163 197.889C238.407 196.364 248.975 200.721 251.127 209.333C252.175 213.526 251.728 218.413 251.729 222.717L251.723 240.763C259.557 247.142 249.144 255.294 244.005 247.54C236.091 252.069 223.036 252.311 216.298 245.617C211.312 239.679 210.963 228.878 216.633 223.243C221.052 218.85 226.673 219.073 232.417 219.074L241.261 219.094C241.418 216.43 241.612 213.758 241.261 211.103ZM225.651 229.283C218.267 232.53 223.614 245.214 237.568 239.63C241.826 236.753 241.346 233.92 241.261 229.283C236.113 229.273 230.781 229.002 225.651 229.283Z"/>
	<path fill="#240046" transform="scale(2 2)" d="M276.459 201.042C280.951 199.674 284.916 198.258 289.644 197.889C297.939 197.475 307.159 209.016 297.213 212.144C290.24 214.337 297.072 203.605 276.459 212.432C276.458 224.124 276.667 235.852 276.459 247.54C273.728 250.569 267.513 251.846 266.02 246.994C265.283 244.598 265.376 207.052 265.811 202.951C266.531 196.17 272.773 198.62 276.459 201.042Z"/>
	<path fill="#240046" transform="scale(2 2)" d="M344.95 240.763C348.93 247.819 341.199 251.128 334.948 251.473C310.739 252.811 308.721 245.354 308.723 223.623C308.725 207.639 309.621 198.447 328.182 197.889C346.36 197.683 353.364 216.953 343.943 226.199C337.555 232.469 326.806 230.217 318.732 230.234C318.454 243.493 324.219 240.826 335.726 240.763C338.744 237.731 341.87 237.965 344.95 240.763ZM326.221 208.33C319.254 209.313 318.774 212.821 318.732 219.094L330.132 219.094C341.4 219.833 340.176 207.629 326.221 208.33Z"/>
	<path fill="#240046" transform="scale(2 2)" d="M69.8775 212.432C70.3683 209.803 71.3653 208.559 73.9158 207.505C77.5354 207.424 79.2706 208.826 79.7495 212.432C79.5485 215.482 78.9397 216.665 76.1292 218.219C72.0012 218.695 70.5074 216.116 69.8775 212.432Z"/>
	<path fill="#240046" transform="scale(2 2)" d="M127.975 374.123C122.109 374.976 100.699 374.133 96.1312 372.91C72.7295 366.641 69.7784 348.436 69.8651 328.509L69.8975 257.931C69.8873 251.422 67.3335 230.667 72.9281 227.551C83.7775 225.975 79.7634 245.106 79.7509 252.653L79.7487 328.782C79.7495 339.747 79.154 349.701 88.2763 357.68C102.025 369.705 120.787 360.981 129.324 364.888C133.494 366.797 132.631 372.653 127.975 374.123Z"/>
	<path fill="#240046" transform="scale(2 2)" d="M220.28 262.472C224.929 262.194 229.708 262.47 234.375 262.473L282.609 262.463C287.795 262.456 292.937 261.017 296.49 265.684C296.765 275.418 284.16 272.555 276.892 272.555L233.334 272.547C230.318 272.547 220.91 273.442 218.649 271.23C216.069 268.707 218.218 264.552 220.28 262.472Z"/>
	<path fill="#240046" transform="scale(2 2)" d="M307.249 265.684C308.449 263.411 310.132 262.791 312.506 262.472C317.019 263.161 319.228 266.057 317.412 270.554C312.477 275.447 306.369 272.214 307.249 265.684Z"/>
	<path fill="#240046" transform="scale(2 2)" d="M181.346 263.373C183.801 261.921 199.654 262.288 203.589 262.472C205.121 263.916 206.082 265.294 206.15 267.462C206.357 274.068 198.036 272.558 193.833 272.526C188.501 272.485 175.961 273.154 181.346 263.373Z"/>
	<path fill="#C77DFF" transform="scale(2 2)" d="M203.589 262.472L216.099 262.612C217.483 262.626 218.91 262.362 220.28 262.472C218.218 264.552 216.069 268.707 218.649 271.23C220.91 273.442 230.318 272.547 233.334 272.547L276.892 272.555C284.16 272.555 296.765 275.418 296.49 265.684C300.057 265.864 303.676 265.719 307.249 265.684C306.369 272.214 312.477 275.447 317.412 270.554C319.026 272.976 326.659 271.465 329.372 271.532C334.607 274.9 343.107 273.158 349.117 273.155L385.016 273.175C400.743 273.169 405.595 270.25 405.343 288.531L405.249 302.054C405.212 308.198 405.121 312.912 412.682 311.68C412.382 337.786 414.76 354.265 382.174 354.272L203.191 354.27C198.511 354.276 193.622 354.721 188.969 354.259C190.637 350.478 189.843 343.463 189.854 339.213C200.665 343.076 215.882 341.017 217.657 327.492C218.172 323.563 218.299 306.756 217.548 303.013C214.693 288.795 193.939 286.622 185.508 293.384C179.255 298.399 179.74 305.695 179.766 312.843L179.733 341.83C179.729 345.689 178.769 351.033 181.346 354.259C175.788 354.675 169.272 354.266 163.619 354.263L144.247 354.266C130.262 354.312 128.486 354.833 117.218 345.42C111.983 332.763 113.446 334.465 113.47 320.326L113.46 286.19C113.524 262.076 131.362 263.368 149.37 263.369L181.346 263.373C175.961 273.154 188.501 272.485 193.833 272.526C198.036 272.558 206.357 274.068 206.15 267.462C206.082 265.294 205.121 263.916 203.589 262.472ZM147.987 266.858C131.428 267.781 127.882 277.139 128.697 291.941C129.891 313.605 158.275 302.722 159.34 316.858C159.596 320.252 160.045 324.87 157.665 327.614C154.583 331.166 144.723 332.607 141.163 329.157C136.84 324.969 141.667 315.292 133.821 315.198C124.379 315.084 127.188 341.566 147.239 340.772C159.744 341.298 169.176 336.143 169.656 322.641C170.788 290.818 143.347 303.573 139.189 292.631C133.816 278.49 150.394 272.833 156.71 279.965C159.451 283.06 158.066 289.953 163.095 290.469C173.378 291.522 171.239 267.223 148.882 266.869L147.987 266.858ZM287.744 290.335C280.4 291.423 274.336 295.816 272.862 303.29C272.101 307.151 272.153 323.214 272.811 327.198C275.359 342.625 297.484 346.095 306.118 333.607C311.377 326 304.724 319.431 299.393 324.387C298.005 326.965 296.907 329.629 293.879 330.58C279.598 335.062 281.686 314.674 282.754 306.37C283.474 300.773 290.694 297.929 295.137 301.478C297.935 303.713 298.665 310.069 302.946 309.795C314.615 309.047 305.64 288.363 287.744 290.335ZM331.381 290.335C312.813 292.569 313.674 311.966 315.422 326.6C317.572 344.594 347.621 342.457 350.303 338.631C351.996 336.215 351.193 333.324 349.134 331.489C339.778 327.011 325.433 338.69 325.382 320.006L339.77 320.036C351.569 320.066 352.397 320.675 351.968 308.048C351.582 296.705 342.774 288.206 331.381 290.335ZM373.504 290.335C359.598 292.017 354.571 307.497 364.68 314.743C369.688 318.333 377.253 319.559 381.531 322.7C389.547 328.586 376.255 334.508 370.73 329.987C367.297 327.178 364.699 321.869 360.307 327.097C357.469 330.475 360.871 335.045 363.654 337.244C368.363 340.963 374.32 341.361 380.063 340.772C392.503 339.859 399.287 324.622 389.035 315.883C383.508 311.172 375.539 310.506 371.432 307.235C365.61 302.598 376.685 296.342 382.303 301.687C383.952 303.257 385.443 306.27 388.036 306.321C399.033 306.536 392.237 287.374 373.504 290.335ZM236.239 290.335C230.643 291.778 224.15 298.425 230.63 301.602C236.333 304.398 252.708 292.133 252.841 310.012C240.213 309.998 225.306 308.392 225.708 325.395C225.871 332.281 229.66 338.073 236.239 340.23C242.574 341.842 250.7 342.368 255.416 337.166C264.223 347.07 270.985 336.667 266.178 332.662C256.583 324.667 270.204 303.941 257.137 293.754C251.367 289.256 243.083 290.479 236.239 290.335Z"/>
	<path fill="#240046" transform="scale(2 2)" d="M329.372 271.532C328.51 269.267 328.409 264.545 331.392 263.634C333.896 262.869 353.953 263.366 357.773 263.366L384.363 263.372C397.035 263.378 406.901 261.286 414.367 273.915C416.573 279.86 415.611 286.982 415.625 293.197C415.635 298.153 417.45 308.523 412.682 311.68C405.121 312.912 405.212 308.198 405.249 302.054L405.343 288.531C405.595 270.25 400.743 273.169 385.016 273.175L349.117 273.155C343.107 273.158 334.607 274.9 329.372 271.532Z"/>
	<path fill="#240046" transform="scale(2 2)" d="M147.239 340.772C127.188 341.566 124.379 315.084 133.821 315.198C141.667 315.292 136.84 324.969 141.163 329.157C144.723 332.607 154.583 331.166 157.665 327.614C160.045 324.87 159.596 320.252 159.34 316.858C158.275 302.722 129.891 313.605 128.697 291.941C127.882 277.139 131.428 267.781 147.987 266.858L148.882 266.869C171.239 267.223 173.378 291.522 163.095 290.469C158.066 289.953 159.451 283.06 156.71 279.965C150.394 272.833 133.816 278.49 139.189 292.631C143.347 303.573 170.788 290.818 169.656 322.641C169.176 336.143 159.744 341.298 147.239 340.772Z"/>
	<path fill="#240046" transform="scale(2 2)" d="M437.38 294.024Q437.042 294.061 436.702 294.054Q436.362 294.047 436.026 293.995Q435.69 293.943 435.364 293.847Q435.038 293.751 434.728 293.613Q434.417 293.474 434.127 293.297Q433.837 293.119 433.574 292.904Q433.31 292.69 433.077 292.442Q432.844 292.195 432.645 291.919Q432.446 291.643 432.286 291.343Q432.126 291.044 432.006 290.726Q431.886 290.407 431.81 290.076Q431.733 289.745 431.701 289.406Q431.669 289.068 431.682 288.728Q431.694 288.389 431.752 288.054Q431.809 287.719 431.91 287.394Q432.011 287.069 432.154 286.761Q432.297 286.453 432.479 286.166Q432.662 285.879 432.88 285.618Q433.099 285.358 433.35 285.129Q433.601 284.899 433.88 284.705Q434.159 284.511 434.462 284.355Q434.764 284.199 435.084 284.085Q435.404 283.97 435.737 283.899Q436.069 283.828 436.408 283.801Q436.532 283.791 436.657 283.787Q436.782 283.784 436.907 283.786Q437.031 283.788 437.156 283.797Q437.28 283.805 437.404 283.819Q437.528 283.834 437.651 283.854Q437.774 283.874 437.896 283.901Q438.018 283.927 438.139 283.959Q438.259 283.992 438.378 284.03Q438.497 284.068 438.614 284.111Q438.731 284.155 438.845 284.205Q438.96 284.254 439.072 284.309Q439.184 284.364 439.293 284.424Q439.402 284.484 439.509 284.55Q439.615 284.615 439.718 284.686Q439.821 284.757 439.92 284.832Q440.019 284.908 440.115 284.988Q440.21 285.068 440.302 285.153Q440.393 285.238 440.481 285.327Q440.568 285.416 440.651 285.509Q440.734 285.603 440.812 285.7Q440.89 285.797 440.964 285.898Q441.037 285.999 441.105 286.103Q441.174 286.207 441.237 286.315Q441.301 286.422 441.359 286.533Q441.417 286.643 441.469 286.757Q441.522 286.87 441.569 286.985Q441.616 287.101 441.657 287.219Q441.698 287.336 441.734 287.456Q441.77 287.575 441.799 287.697Q441.829 287.818 441.853 287.94Q441.877 288.063 441.894 288.186Q441.912 288.31 441.924 288.434Q441.936 288.558 441.942 288.683Q441.947 288.808 441.947 288.932Q441.947 289.057 441.941 289.182Q441.934 289.306 441.922 289.43Q441.909 289.555 441.891 289.678Q441.873 289.801 441.848 289.924Q441.824 290.046 441.794 290.167Q441.763 290.288 441.727 290.408Q441.691 290.527 441.649 290.645Q441.607 290.762 441.56 290.878Q441.512 290.993 441.459 291.106Q441.406 291.219 441.347 291.329Q441.289 291.439 441.225 291.546Q441.161 291.654 441.092 291.758Q441.023 291.862 440.949 291.962Q440.876 292.063 440.797 292.16Q440.718 292.256 440.635 292.349Q440.552 292.442 440.464 292.531Q440.376 292.62 440.284 292.704Q440.192 292.788 440.096 292.868Q440 292.948 439.901 293.023Q439.801 293.098 439.698 293.168Q439.594 293.238 439.488 293.303Q439.381 293.368 439.272 293.428Q439.162 293.488 439.05 293.542Q438.938 293.597 438.823 293.645Q438.708 293.694 438.591 293.738Q438.474 293.781 438.355 293.818Q438.236 293.856 438.115 293.887Q437.995 293.919 437.873 293.945Q437.75 293.971 437.627 293.99Q437.504 294.01 437.38 294.024Z"/>
	<path fill="#240046" transform="scale(2 2)" d="M181.346 354.259C178.769 351.033 179.729 345.689 179.733 341.83L179.766 312.843C179.74 305.695 179.255 298.399 185.508 293.384C193.939 286.622 214.693 288.795 217.548 303.013C218.299 306.756 218.172 323.563 217.657 327.492C215.882 341.017 200.665 343.076 189.854 339.213C189.843 343.463 190.637 350.478 188.969 354.259C185.988 355.666 184.325 356.213 181.346 354.259ZM194.794 300.42C186.914 303.017 188.944 321.672 190.543 326.473C192.278 331.681 199.222 330.823 203.589 330.72C210.12 326.715 208.553 311.416 207.543 305.079C206.594 299.117 199.134 300.135 194.794 300.42Z"/>
	<path fill="#240046" transform="scale(2 2)" d="M299.393 324.387C304.724 319.431 311.377 326 306.118 333.607C297.484 346.095 275.359 342.625 272.811 327.198C272.153 323.214 272.101 307.151 272.862 303.29C274.336 295.816 280.4 291.423 287.744 290.335C305.64 288.363 314.615 309.047 302.946 309.795C298.665 310.069 297.935 303.713 295.137 301.478C290.694 297.929 283.474 300.773 282.754 306.37C281.686 314.674 279.598 335.062 293.879 330.58C296.907 329.629 298.005 326.965 299.393 324.387Z"/>
	<path fill="#240046" transform="scale(2 2)" d="M349.134 331.489C351.193 333.324 351.996 336.215 350.303 338.631C347.621 342.457 317.572 344.594 315.422 326.6C313.674 311.966 312.813 292.569 331.381 290.335C342.774 288.206 351.582 296.705 351.968 308.048C352.397 320.675 351.569 320.066 339.77 320.036L325.382 320.006C325.433 338.69 339.778 327.011 349.134 331.489ZM331.381 300.42C326.036 301.872 325.346 304.969 325.382 310.012L335.726 310.012L341.811 310.012C342.22 302.699 338.877 299.421 331.381 300.42Z"/>
	<path fill="#240046" transform="scale(2 2)" d="M380.063 340.772C374.32 341.361 368.363 340.963 363.654 337.244C360.871 335.045 357.469 330.475 360.307 327.097C364.699 321.869 367.297 327.178 370.73 329.987C376.255 334.508 389.547 328.586 381.531 322.7C377.253 319.559 369.688 318.333 364.68 314.743C354.571 307.497 359.598 292.017 373.504 290.335C392.237 287.374 399.033 306.536 388.036 306.321C385.443 306.27 383.952 303.257 382.303 301.687C376.685 296.342 365.61 302.598 371.432 307.235C375.539 310.506 383.508 311.172 389.035 315.883C399.287 324.622 392.503 339.859 380.063 340.772Z"/>
	<path fill="#240046" transform="scale(2 2)" d="M252.841 310.012C252.708 292.133 236.333 304.398 230.63 301.602C224.15 298.425 230.643 291.778 236.239 290.335C243.083 290.479 251.367 289.256 257.137 293.754C270.204 303.941 256.583 324.667 266.178 332.662C270.985 336.667 264.223 347.07 255.416 337.166C250.7 342.368 242.574 341.842 236.239 340.23C229.66 338.073 225.871 332.281 225.708 325.395C225.306 308.392 240.213 309.998 252.841 310.012ZM241.261 320.006C233.56 321.04 231.323 332.609 247.724 330.72C253.582 328.216 252.884 325.765 252.841 320.006C248.994 320 245.103 319.868 241.261 320.006Z"/>
	<path fill="#C77DFF" transform="scale(2 2)" d="M203.589 330.72C199.222 330.823 192.278 331.681 190.543 326.473C188.944 321.672 186.914 303.017 194.794 300.42C199.134 300.135 206.594 299.117 207.543 305.079C208.553 311.416 210.12 326.715 203.589 330.72Z"/>
	<path fill="#C77DFF" transform="scale(2 2)" d="M325.382 310.012C325.346 304.969 326.036 301.872 331.381 300.42C338.877 299.421 342.22 302.699 341.811 310.012L335.726 310.012L325.382 310.012Z"/>
	<path fill="#240046" transform="scale(2 2)" d="M153.644 356.47C155.779 358.888 157.582 361.616 159.451 364.241C162.026 367.216 164.65 370.175 167.094 373.26C170.107 370.171 173.001 367.058 176.281 364.241C176.338 364.245 176.394 364.252 176.451 364.252L386.593 364.248C403.182 364.262 425.228 367.549 430.951 346.287C432.539 340.388 431.908 333.482 431.902 327.4L431.889 307.284C434.317 302.591 439.261 303.574 441.964 307.284C442.018 332.743 447.412 368.823 412.37 373.746C408.622 374.273 404.756 374.138 400.98 374.131L226.203 374.125C210.748 374.105 195.201 374.531 179.76 374.123C177.019 378.463 168.703 388.798 162.903 383.866C160.514 381.834 154.519 374.196 152.526 371.513C150.865 373.104 149.413 374.538 147.239 375.419C133.027 371.99 149.01 360.837 153.644 356.47Z"/>
	<path fill="#C77DFF" transform="scale(2 2)" d="M247.724 330.72C231.323 332.609 233.56 321.04 241.261 320.006C245.103 319.868 248.994 320 252.841 320.006C252.884 325.765 253.582 328.216 247.724 330.72Z"/>
	<path fill="#C77DFF" transform="scale(2 2)" d="M159.451 364.241C160.924 363.72 174.976 363.932 176.281 364.241C173.001 367.058 170.107 370.171 167.094 373.26C164.65 370.175 162.026 367.216 159.451 364.241Z"/>
</svg>
